<svg xmlns="http://www.w3.org/2000/svg" xml:space="preserve" viewBox="0 0 1024 1024"><path fill="#3571af" d="M572 1025H1V1h1024v1024zm81.045-434.046s.058-.162.156.484c.393.496.786.99.98 1.316 0 0 .178-.19.14.488.574.583 1.146 1.165 2.164 2.013.198.46.397.921.884 1.855.222.293.444.586.623.883 0 0 .028-.033.096.645.642.783 1.284 1.567 1.912 2.362 0 0 .011-.017.08.661a65 65 0 0 1 1.913 2.327s.036-.037.091.645c.648.785 1.295 1.57 1.908 2.361 0 0 .023-.027.095.651.652.778 1.304 1.556 1.905 2.342 0 0 .033-.039.099.643.65.785 1.298 1.569 1.9 2.359 0 0 .03-.038.1.645.656.78 1.31 1.559 1.906 2.35 0 0 .035-.05.076.7 1.077 1.41 2.154 2.821 3.65 4.409.224.236.322.517.361 1.57 1.614.864 3.26 2.532 4.837 2.468 13.365-.539 26.717-1.393 40.927-2.16 4.395-.324 8.808-.5 13.18-1.02 3.682-.44 7.316-1.283 11.652-1.997.45.053.901.107 2.012.595 6.553-.262 13.107-.483 19.653-.858.578-.033 1.099-1.066 2.306-1.812.45.043.9.086 1.969.604 2.78-.117 5.562-.233 8.774-.496 0 0 .455-.027.854-.27.28-.146.52-.342 1.24-.73.176.03.353.062 1.217.546 3.641.16 7.281.367 10.925.473 6.919.2 11.197 4.337 11.338 11.22.136 6.658.13 13.32.173 19.883 0 0 .097-.003-.163.148-.235.237-.225.487.268 1.181.225.244.483.447 1.437 1.101 14.5.113 28.999.236 43.499.306.594.003 1.19-.494 2.714-.922 4.437-.007 8.883-.191 13.31.02 6.879.33 12.115-2.046 15.85-9.13.317-1.43.905-2.86.91-4.292.066-16.46.07-32.922-.008-49.382-.006-1.404-.714-2.805-1.342-5.07.096-2.674.192-5.348.727-8.523-.142-1.195-.284-2.39-.661-4.381.07-1.37.139-2.74.684-4.71-.164-2.172-.328-4.345-.736-7.308.086-1.365.172-2.73.67-4.538-.13-.883-.26-1.766-.624-3.476.088-1.706.177-3.412.776-5.254-.168-.63-.336-1.261-.736-2.723.08-1.715.16-3.43.746-5.282l-.75-2.794c-.024-.665-.068-1.33-.068-1.996-.015-94.133-.05-188.266.04-282.4.004-3.972-1.075-6.875-3.875-9.683-12.23-12.269-24.232-24.764-36.4-37.094-23.285-23.595-46.674-47.086-69.907-70.73-5.252-5.345-11.138-8.104-18.74-7.251-3.621.406-7.323.101-10.989.1-85.97-.033-171.942-.082-257.912-.087-11.079 0-14.938 4.082-14.922 15.147.022 15.656-.042 31.312-.507 47.657-.136 1.312-.39 2.624-.39 3.937-.024 34.21-.035 68.42.02 102.63.002 1.572.637 3.143 1.467 5.18 1.507 2.392 3.064 4.753 4.514 7.18 46.434 77.7 93.084 155.265 143.554 230.454 11.583 17.255 22.97 34.642 34.627 52.51.328.459.655.917.82 1.32M496.01 856.987s-.05-.114.531.355c1.207.205 2.413.408 4.05.608 0 0 .421.086.942.632 3.204.459 6.407.918 10.07 1.403 0 0 .437.146 1.113.583 3.14.132 6.28.263 10.263.388 1.685.052 3.37.104 5.69.593 2.766-.146 5.532-.29 9.084-.578 1.064-.026 2.129-.051 3.558.263.578-.108 1.157-.216 2.594-.256 3.31-.674 6.675-1.158 9.923-2.058 9.36-2.593 18.714-5.22 27.99-8.088 8.796-2.72 17.492-5.762 26.893-8.232 4.1-.19 8.198-.404 12.298-.569 13.707-.553 27.02 2.03 40.301 4.976 1.805.4 3.767.094 6.392.147 10.114 3.388 20.229 6.777 30.627 10.781 2.871.424 5.742.847 9.177 1.179.18.064.36.127.868.822 12.155 3.6 24.443 2.446 37.563 1.04 3.574-.697 7.147-1.395 11.432-1.857 5.89-1.38 11.93-2.327 17.616-4.298 3.581-1.241 6.631-4.015 9.907-5.974 0 0-.127-.022.615.044 1.138-.714 2.275-1.428 3.402-2.021 0 0-.12-.02.667.047 2.04-1.037 4.082-2.074 6.598-3.646 3.922-1.81 7.877-3.549 11.759-5.44 8.258-4.025 11.27-11.882 7.897-20.383-2.953-7.443-9.797-10.564-18.578-7.799-7.277 2.292-14.498 4.914-21.457 8.03-22.284 9.982-45.248 13.226-69.094 7.269-8.687-2.17-17.376-4.716-25.645-8.112-29.957-12.305-60.194-14.692-91.616-4.33-2.203.52-4.55.713-6.586 1.61-14.977 6.6-30.508 11.56-46.905 11.668-16.63.111-32.85-2.838-48.638-8.853-11.377-4.335-23.503-6.706-35.96-10.395-14.522-2.395-29.29-3.17-43.497.292-15.078 3.673-29.63 9.515-44.383 14.49-.6.203-.92 1.235-1.46 1.765 0 0 .116-.089-.202.177-.234.15-.474.29-1.452.764-2.91.675-5.793 1.752-8.737 1.96-20.74 1.46-41.263.876-60.83-7.403-16.076-6.803-32.702-10.982-50.272-11.41-29.792-.725-56.908 8.952-83.349 21.148-8.144 3.757-11.205 12.209-8.293 20.117 2.78 7.545 11.755 12.22 20.585 10.83 4.157-1.843 8.314-3.687 12.472-5.391 0 0-.14-.005.679.046 4.108-1.643 8.217-3.285 13.01-4.927 1.627-.287 3.303-.409 4.872-.886 15.05-4.578 30.33-6.35 46.004-4.213 6.205.846 12.453 1.376 19.114 2.071 0 0 .413.127.925.57.88.136 1.762.273 3.076.429 0 0 .413.13.924.566.875.14 1.75.28 3.055.413 0 0 .419.092.854.518.58.16 1.16.32 2.165.476 0 0 .406.126.724.5.264.194.542.366 1.256.51 0 0 .416.072.849.503.58.165 1.16.33 2.165.492 0 0 .41.113.727.49.263.2.543.372 1.277.543 0 0 .42.13.854.537.57.145 1.14.29 2.148.46 0 0 .417.136.855.537.567.146 1.135.292 2.142.463 0 0 .42.132.852.54.568.146 1.135.292 2.147.469 0 0 .425.135.95.554.875.137 1.75.273 3.04.393 0 0 .408.086.813.706 4.253.772 8.506 1.543 13.183 2.303 0 0 .415.084.992.587 13.114 2.865 26.34 2.546 39.508.825 4.716-.616 9.247-2.641 14.594-4.323 4.119-1.293 8.237-2.587 12.841-3.496 1.137-.594 2.274-1.188 3.412-1.647 0 0-.135-.005.69.038 5.549-1.586 11.057-3.332 16.653-4.729 18.492-4.613 37.081-3.696 55.687-.724 5.345.853 10.695 1.67 16.808 2.488 7.087 2.48 14.173 4.962 21.68 8.05.888.31 1.776.62 2.552.98m-92.781-391.6c.162.248.376.438.81 1.5-.053 8.05-.106 16.102-.346 24.366-.148.261-.086.497.354 1.593-.055 2.397-.11 4.795-.362 7.405-.154.267-.087.504.363 1.626-.055 3.721-.11 7.443-.562 11.565.132.839.264 1.677.561 3.353-.054 1.415-.107 2.83-.59 4.763.144 1.467.287 2.934.594 5.259-.055 1.741-.11 3.482-.562 5.624.132.84.264 1.679.563 3.447-.056 6.388-.111 12.775-.635 19.836-.145.81-.418 1.622-.418 2.432.007 30.22.023 60.44.119 90.659.005 1.588.725 3.173 1.767 5.192.005 6.343.01 12.686-.456 19.64-.226 3.882-1.02 7.206-6.117 6.729-.373-.035-.838.906-2.127 1.612-6.37.384-12.74.768-19.675.674-10.844.951-21.7 1.787-32.525 2.913-4.02.418-7.967 1.516-12.83 2.506-5.366.342-10.733.685-16.678.616-3.96.22-7.93.337-11.88.677-13.536 1.164-27.066 2.406-41.31 3.629-1.09.631-2.182 1.263-3.921 2.084-.447-.012-.894-.024-1.957-.542-3.754.143-7.514.202-11.262.442-15.334.983-30.667 1.988-45.99 3.112-1.088.08-2.099 1.192-3.794 2.019-.447-.024-.894-.048-2.002-.573-4.848-.137-9.921-2.516-14.999 1.661-.444-.05-.889-.1-1.946-.614l-6.334-.55c-.035.556-.07 1.111-.774 1.959-6.008 3.373-7.143 6.568-3.48 13.14 13.104 23.498 28.216 45.528 48.805 64.372 4.27-.16 8.549-.592 12.805-.43 13.249.5 26.49 1.227 40.168 1.88 0 0 .417.126.93.652 2.222.441 4.444.882 7.068 1.306 0 0 .396.076.84.616 3.586 1.11 7.172 2.222 10.611 3.387 0 0-.05-.148.37.347.592.224 1.183.448 2.194.664 0 0 .395.139.603.8 4.972 1.729 9.945 3.458 14.791 5.24 0 0-.051-.127.503.373 5.871 1.205 11.742 2.41 18.341 3.61.724.047 1.448.094 2.73.589 1.8-.166 3.6-.331 6.281-.64 2.382.044 4.764.089 7.774.621 3.792-.6 7.583-1.2 11.336-1.63 0 0-.169-.044.43.07.201.02.402.037 1.29.094 1.137-.075 2.365.106 3.397-.263 15.67-5.596 31.313-11.264 47.78-16.878 4.4-.912 8.801-1.823 13.908-2.335 8.05-.139 16.099-.277 24.862-.572 3.448.427 6.897.854 10.24 1.838.273.352.485.928.83 1.022 9.708 2.667 19.422 5.32 29.162 7.87 1.313.344 2.773.124 4.731.152.499.227.997.454 1.759 1.369 4.505 1.91 8.869 4.318 13.54 5.638 14.41 4.071 29.101 5.899 44.864 3.942 6.235-1.727 12.522-3.29 18.674-5.276 2.02-.652 3.69-2.398 5.518-3.577 0 0-.056-.037.733-.046 1.425-.668 2.85-1.336 4.295-1.94 0 0-.066.016.202-.242.204-.146.427-.25 1.325-.721 3.511-1.3 7.022-2.598 11.07-3.49 3.779-1.371 7.557-2.741 11.864-4.417.204.015.407.03 1.232.469 11.654-.543 23.308-1.073 34.96-1.66.778-.039 1.535-.514 2.844-.91.178.051.356.103.85.822.376.31.716.829 1.133.902 7.957 1.39 15.9 2.892 23.897 4.005 3.776.525 6.895-.816 8.028-5.79 15.57-12.627 30.042-26.333 42.38-42.227 19.748-25.441 36.786-52.645 52.8-80.526 1.428-2.488 3.01-5.116-1.223-7.763-6.434.27-12.887.31-19.297.851-17.355 1.465-34.692 3.143-52.872 4.775-21.725 1.979-43.45 3.957-65.991 6.087-9.056.934-18.103 1.96-27.17 2.783-16.167 1.47-32.354 2.726-48.51 4.304-2.972.29-5.835 1.689-9.284 2.77a97 97 0 0 1-2.89-.08c-.204-.048-.409-.095-1.18-.549-2.047.482-4.093.963-6.802 1.639-.457-.03-.914-.06-1.988-.536-2.447.42-4.895.841-8.081 1.472-.765 0-1.53-.001-2.954-.48-7.226.368-14.465.577-21.67 1.187-2.59.219-5.097 1.402-8.305 2.344-.458-.028-.916-.055-2.041-.54-6.748.335-13.51.492-20.24 1.043-12.546 1.027-25.062 2.45-37.615 3.37-6.034.443-6.297-.246-6.472-6.465-.21-7.457-.653-14.907-.901-22.364-.153-4.58-.828-9.321 3.587-13.11.45.05.901.1 1.92.566 1.79-.13 3.58-.261 6.106-.533.747-.035 1.495-.07 2.851.38.963.155 1.937.496 2.886.435 8.58-.55 17.148-1.318 25.734-1.74 16.205-.798 32.423-1.319 48.626-2.157 4.41-.228 8.782-1.177 13.817-1.935.439-.038.877-.075 1.88.348 3.493-.407 6.987-.814 11.237-1.355.764.045 1.528.09 2.878.558 1.817-.218 3.634-.437 6.31-.565 1.493-.055 2.986-.09 4.477-.169 4.974-.26 9.947-.546 14.922-.802 1.49-.077 2.988-.04 4.477-.137 8.416-.549 16.83-1.122 25.806-1.311 1.46-.479 2.922-.957 5.05-1.59.453.031.906.063 2.033.57 9.516-.231 19.034-.435 28.547-.762.597-.02 1.162-1.004 2.322-1.893-.287-.873-.41-1.85-.885-2.605-30.588-48.517-61.39-96.9-91.775-145.544-40.788-65.298-81.263-130.792-121.823-196.233-1.01-1.63-1.446-3.615-1.624-6.09.145-15.59.32-31.178.351-46.768.002-.87-1.2-1.742-2.328-3.09-1.791-4.185-4.995-6.004-9.491-5.722-5.164.325-6.8 4.077-8.512 8.901-.144.64-.412 1.28-.413 1.921-.033 16.351-.055 32.702-.01 49.052.003 1.092.553 2.182 1.017 4.201-.068 33.045-.136 66.09-.82 99.376.206 1.57.412 3.14.777 5.541-.053 1.406-.105 2.812-.636 4.338.16.61.319 1.22.634 2.662-.05 1.405-.1 2.81-.81 4.506-1.532 2.702-2.325 5.342.808 8.533-.051 2.059-.102 4.118-.742 6.388.195 1.247.39 2.494.74 4.67-.05 9.707-.099 19.413-.682 29.272.183 1.263.365 2.527.7 4.701-.05 3.386-.098 6.771-.573 10.704-.147 1.143-.295 2.286-.23 3.806m-33.306 179.54c5.306-1.555 11.655 1.173 16.6-4.588.174-.973.498-1.946.498-2.919.025-53.05-.096-106.102.06-159.153.124-42.256.643-84.51.869-126.767.132-24.97.084-49.941-.063-74.911-.01-1.834-1.488-3.659-2.284-5.488l-1.92.596c.08 1.316.159 2.631.157 4.682-14.267 30.81-28.507 61.632-42.808 92.427-39.02 84.028-78.065 168.046-117.109 252.063-3.641 7.837-7.267 15.682-11.056 23.447-1.7 3.485-.783 6.323 2.589 7.173 4.072 1.028 8.456 1.243 12.686 1.13 9.642-.26 19.272-.934 29.563-1.044.981.118 1.969.378 2.942.333 12.923-.606 25.842-1.275 38.765-1.887 8.289-.393 16.59-.58 24.868-1.134 4.252-.284 8.463-1.17 13.336-1.926.437-.035.874-.07 1.885.373 5.374-.136 10.764-.055 16.115-.478 4.506-.356 8.966-1.297 14.307-1.93"/><path fill="#f9f8f7" d="M881.955 537.012c-.08 1.714-.16 3.429-.205 5.894a41 41 0 0 0 .191 2.109c-.088 1.706-.177 3.412-.237 5.913.08 1.571.132 2.348.184 3.125-.086 1.365-.172 2.73-.226 4.928.097 2.914.163 4.995.228 7.075-.07 1.37-.139 2.74-.177 4.91.085 1.894.138 2.987.191 4.08-.096 2.675-.192 5.35-.256 8.92.085 8.781.138 16.665.038 24.924-.084 2.214-.014 4.052-.046 6.274-.043 3.593.016 6.8-.061 10.379-.053 1.671.03 2.972.015 4.71-.045 1.924.01 3.41-.071 5.276-.099 2.457-.062 4.536-.104 6.711-.08.096.035.316.035.316-3.133 6.34-8.37 8.717-15.247 8.388-4.428-.212-8.874-.028-14.238-.008-15.934.046-30.942.079-45.95.111-.29-.162-.548-.365-.813-1.044-.04-.436.032-.897.032-.897s-.097.003.203-.214c.662-7.101 1.693-14.032 1.212-20.857-.557-7.902-6.304-12.218-14.279-11.94-3.46.12-6.904.644-10.356.985-.177-.031-.354-.063-1.052-.027-.72.347-.919.627-1.117.907 0 0-.455.027-1.062.042-3.334.012-6.06.009-8.785.006-.45-.043-.9-.086-2.099-.075-7.789.763-14.83 1.473-21.871 2.182-.45-.054-.901-.108-2.015-.283-8.79.61-16.919 1.34-25.45 2.113-3.04.013-5.685-.178-8.309-.017-10.056.616-20.1 1.476-30.162 1.924-1.993.088-4.05-1.242-6.078-1.918.027-.324-.071-.605-.618-1.248a386 386 0 0 1-3.368-4.751s-.035.05-.095-.252c-.678-1.111-1.297-1.921-1.916-2.732 0 0-.03.038-.08-.265-.673-1.115-1.294-1.926-1.916-2.738 0 0-.033.039-.088-.262-.677-1.108-1.3-1.913-1.922-2.72 0 0-.023.028-.085-.273-.675-1.115-1.288-1.929-1.901-2.742 0 0-.036.037-.091-.266-.679-1.102-1.303-1.902-1.927-2.702 0 0-.011.017-.09-.283-.685-1.114-1.293-1.927-1.901-2.74 0 0-.028.033-.079-.247a4.6 4.6 0 0 0-.861-1.076c-.198-.46-.397-.921-.894-1.806a83 83 0 0 0-1.827-2.268s-.177.191-.11-.056c-.336-.736-.74-1.225-1.146-1.715 0 0-.058.162-.043-.096-.328-.706-.671-1.155-1.015-1.604-11.477-17.326-22.865-34.713-34.448-51.968-50.47-75.189-97.12-152.754-143.554-230.455-1.45-2.426-3.007-4.787-4.75-7.882-.299-37.713-.361-74.723-.423-111.733.027-15.656.09-31.312.069-46.968-.016-11.065 3.843-15.148 14.922-15.147 85.97.005 171.941.054 257.912.087 3.666.001 7.368.306 10.989-.1 7.602-.853 13.488 1.906 18.74 7.25 23.233 23.645 46.622 47.136 69.907 70.73 12.168 12.331 24.17 24.826 36.4 37.095 2.8 2.808 3.879 5.711 3.875 9.683-.09 94.134-.055 188.267-.04 282.4 0 .665.044 1.33.108 2.784.094 1.24.148 1.692.203 2.144m-69.953-211.013s-.016-.024.561-.407c3.092-4.451 4.041-8.975.277-14.31-3.272-4.73-8.17-5.19-13.32-5.19-57.498.01-114.996-.018-172.494-.015-26.333.002-52.665.03-78.997.093-8.352.02-12.526 2.575-15.406 9.558-1.468 9.077 3.528 15.3 12.75 15.35 51.778.28 103.556.565 155.334.63 32.468.042 64.936-.213 97.402-.58 3.785-.043 7.554-1.642 11.462-2.519 0 0 .043-.124.547-.42.62-.733 1.24-1.467 1.884-2.19m-261.401 45.183c-2.165.054-4.346-.037-6.493.189-6.498.684-11.509 5.606-11.88 11.513-.422 6.736 3.793 12.17 10.794 13.431 2.92.526 5.964.501 8.952.504 54.977.045 109.954.058 164.931.068 2.164 0 4.355.099 6.487-.193 7.022-.96 11.72-6.858 11.409-14.106-.273-6.336-5.216-10.914-12.299-11.341-1.661-.1-3.33-.097-4.996-.097-55.31.005-110.621.016-166.905.032m234.195-192.479c-3.258-3.336-6.414-6.78-9.798-9.983-4.344-4.111-8.661-8.3-13.383-11.946-3.817-2.948-6.008-1.763-6.638 3.068-.344 2.634-.446 5.313-.464 7.974-.136 19.818-.295 39.637-.3 59.456-.002 12.307 4.19 16.43 16.504 16.477 18.32.069 36.642.104 54.963.006a37 37 0 0 0 9.347-1.257c6.708-1.807 7.118-3.247 2.902-8.576-1.445-1.826-2.958-3.613-4.579-5.283-16.002-16.494-32.032-32.96-48.554-49.936m-232.26 62.171c-2.83.08-5.677-.01-8.486.279-5.043.52-9.945 4.963-10.942 9.644-1.012 4.754 1.117 10.45 5.763 12.787 2.968 1.493 6.638 2.203 9.996 2.214 43.313.137 86.627.087 129.94.082 5.664-.001 11.336.172 16.99-.065 7.576-.317 13.272-5.794 13.218-12.329-.057-6.767-5.532-12.038-13.056-12.538-1.162-.077-2.332-.048-3.498-.048-46.312-.012-92.624-.021-139.924-.026"/><path fill="#f9f8f7" d="M403.884 461.033c.05-3.385.098-6.77.12-11.004-.065-1.9-.102-2.953-.14-4.006.05-9.706.1-19.412.125-29.976-.058-1.913-.092-2.968-.127-4.024.051-2.059.102-4.118.126-7.051-.058-3.233-.09-5.591-.121-7.95.05-1.405.1-2.81.123-4.955-.061-1.174-.095-1.608-.129-2.043.053-1.405.105-2.811.13-5.043-.063-2.203-.098-3.58-.133-4.957.068-33.044.136-66.09.168-100.062-.06-18.93-.082-36.93-.104-54.93 1.257-4.14 2.894-7.892 8.058-8.217 4.496-.282 7.7 1.537 9.74 6.334.35 1.351.453 2.091.471 3.167 0 .784.086 1.232.12 2.146.06 10.503.173 20.54.155 30.887-.032.735.068 1.16.094 2.014.009 1.87.09 3.31.04 5.083-.018 1.508.098 2.684.14 4.203.013 1.028.098 1.715.183 2.4.703 1.82 1.139 3.806 2.149 5.436 40.56 65.44 81.035 130.935 121.823 196.233 30.385 48.644 61.187 97.027 91.775 145.544.476.754.598 1.732.139 2.728-10.763.768-20.78 1.412-30.796 2.056a25 25 0 0 0-2.064-.064c-2.106.415-3.507.8-4.907 1.184-8.415.565-16.83 1.138-25.245 1.687-1.489.097-2.986.06-4.477.137-4.975.256-9.948.541-14.922.802-1.49.079-2.984.114-5.092-.194-2.504-.074-4.393.215-6.281.505-.764-.045-1.528-.09-3.014-.155-4.175.292-7.627.603-11.08.914-.438.038-.876.076-2.04.126-8.535.245-16.351.381-24.157.733-13.24.596-26.478 1.232-39.706 2.035-9.038.549-18.056 1.41-27.084 2.13-.747.036-1.495.07-3.031.116-2.487.042-4.186.074-5.885.107-.45-.05-.901-.1-1.97-.285-4.73-.763-4.308 2.303-4.306 4.663.008 7.649.12 15.3.339 22.945.155 5.413.55 10.819.882 17.053l66.01-6.543c.459.028.917.055 2.149.012 10.47-1.04 20.165-2.011 29.86-2.981.765 0 1.53 0 2.927-.074.798-.132.964-.189 1.491-.186 1.3-.17 2.238-.4 3.339-.502.46.19.714.112 1.087-.016.498-.005.835-.099 1.42-.15.408-.004.569-.05.73-.097.456.03.913.06 2.043.027 1.122-.145 1.57-.227 2.394-.251 2.099-.206 3.821-.469 5.543-.731.754.011 1.508.023 2.935-.02 28.816-2.753 56.959-5.45 85.54-8.075 22.147-1.977 43.857-4.028 65.993-6.001 2.04-.188 3.646-.548 5.271-.702 22.092-2.093 44.187-4.158 66.282-6.23 3.598 2.14 2.016 4.768.588 7.256-16.014 27.88-33.052 55.085-52.8 80.526-12.338 15.894-26.81 29.6-42.893 42.652-3.552 3.959-6.941 4.07-11.452 2.956-6.971-1.723-14.256-2.175-21.409-3.167-.178-.05-.356-.102-1.24-.157-13.043.713-25.381 1.43-37.72 2.148-.203-.014-.406-.028-1.232.162-4.342 1.405-8.06 2.605-11.779 3.805-3.51 1.299-7.022 2.598-11.048 4.135-.762.34-.95.508-1.078.741 0 0 .066-.015-.29-.012-1.812.65-3.27 1.297-4.728 1.945 0 0 .056.037-.32.044-8.447 2.397-16.518 4.787-24.937 7.202-1.1.231-1.844.575-2.606.626-19.043 1.268-37.298-2.179-54.94-9.249a62 62 0 0 0-2.056-.899c-11.725-3.272-22.891-6.328-34.057-9.383-3.449-.428-6.898-.855-11.164-1.26-8.796.065-16.773.108-24.75.15-4.4.912-8.801 1.823-13.817 2.412-6.62 1.444-12.692 3.012-18.614 5.023-10.93 3.712-21.77 7.683-32.908 11.51-.482.218-.706.47-.929.723 0 0 .17.044-.226.01-4.12.37-7.845.773-11.57 1.176-2.381-.044-4.763-.089-8.01-.129a508 508 0 0 0-5.974.189c-.724-.048-1.448-.095-2.744-.464-6.49-1.477-12.406-2.632-18.323-3.788 0 0 .051.126-.045-.223-5.031-2.083-9.967-3.817-14.903-5.551 0 0-.395-.139-.782-.41-1-.477-1.614-.683-2.227-.888 0 0 .05.148-.12-.144-3.74-1.407-7.313-2.52-10.885-3.635 0 0-.396-.076-.809-.394-2.664-.717-4.916-1.115-7.168-1.514 0 0-.417-.127-.868-.467-17.935-4.15-35.502-4.557-53.15-1.606-19.961-18.347-35.073-40.377-48.176-63.876-3.664-6.571-2.53-9.766 4.217-13.25 2.82-.353 4.901-.593 6.982-.833.445.05.89.1 2.117.085 5.48-.407 10.18-.752 14.877-1.096.447.024.894.048 2.12.027 15.942-1.052 31.11-1.981 46.263-3.111 4.893-.366 9.747-1.259 14.62-1.91.447.011.894.023 2.063-.02 1.787-.097 2.852-.137 4.345-.118 10.33-.936 20.24-1.855 30.131-2.952 7.51-.833 14.996-1.894 22.492-2.853a5630 5630 0 0 1 16.99-1.067c9.777-.88 18.673-1.637 27.549-2.589 5.842-.626 11.655-1.532 17.48-2.313 6.37-.384 12.74-.768 19.946-1.25 3.184-.465 5.533-.832 7.878-1.198v-7.656c-.005-6.343-.01-12.686-.055-19.547-.046-1.333-.05-2.148.029-3.216.014-.596-.056-.939-.08-1.653.002-1.117-.043-1.862 0-3.068-.122-6.64-.332-12.819-.457-19.432-.094-23.979-.273-47.524-.451-71.07.056-6.387.111-12.774.128-19.99-.068-1.558-.097-2.289-.127-3.02.055-1.74.11-3.482.129-6.06a539 539 0 0 1-.13-4.94c.055-1.414.108-2.83.125-5.027a665 665 0 0 1-.126-2.972c.055-3.721.11-7.443.12-11.852-.044-.689-.123-1.15-.123-1.15.055-2.398.11-4.796.121-7.866-.044-.673-.122-1.134-.122-1.134.053-8.05.106-16.101.11-24.855-.048-.703-.163-1.172-.087-1.564.045-1.458.014-2.522-.018-3.587"/><path fill="#f8f8f7" d="M257.047 651.179c-9.634.506-19.264 1.18-28.906 1.44-4.23.113-8.614-.102-12.686-1.13-3.372-.85-4.29-3.688-2.589-7.173 3.79-7.765 7.415-15.61 11.056-23.447 39.044-84.017 78.088-168.035 117.11-252.063 14.3-30.795 28.54-61.617 43.115-93.052.835-.677 1.363-.728 1.891-.78-.007.832-.018 1.663-.02 2.494-.21 66.749-.563 133.497-.581 200.246-.015 54.429.372 108.858.58 163.286-4.44 5.1-10.79 2.372-16.729 3.59-3.206-.135-5.78.043-8.348.271-7.339.654-14.676 1.329-22.014 1.995-.437.035-.874.07-2.012.12-3.185-.017-5.68-.22-8.152-.054-9.232.621-18.445 1.588-27.685 2.005-12.266.553-24.553.659-36.826 1.087-2.412.084-4.803.761-7.204 1.165"/><path fill="#f8f8f6" d="M274.01 848.036s-.419-.092-.826-.389c-1.324-.381-2.241-.467-3.159-.552 0 0-.413-.13-.81-.457-1.328-.399-2.26-.472-3.191-.545 0 0-.413-.127-.77-.42-4.115-1.096-7.848-2.077-11.64-2.673-20.7-3.253-40.95-1.761-60.934 6.039-3.875 1.629-7.382 3.23-10.888 4.83 0 0 .14.006-.235.002-4.456 1.67-8.536 3.343-12.617 5.017-8.31 1.769-17.286-2.907-20.065-10.452-2.912-7.908.149-16.36 8.293-20.117 26.44-12.196 53.557-21.873 83.349-21.148 17.57.428 34.196 4.607 50.272 11.41 19.567 8.28 40.09 8.863 60.83 7.402 2.944-.207 5.826-1.284 9.335-2.14.937-.276 1.128-.499 1.172-.849 0 0-.116.089.31.105 4.778-1.576 9.207-2.987 13.468-4.792 17.536-7.427 35.448-12.806 54.837-11.346 7.068.532 14.17.621 21.625 1.033 13.175 4.077 25.87 8.448 38.818 11.866 11.169 2.949 22.532 5.514 33.971 7.01 23.123 3.022 44.15-4.937 64.826-13.958 30.88-10.768 61.117-8.38 91.074 3.924 8.269 3.396 16.958 5.941 25.645 8.112 23.846 5.957 46.81 2.713 69.094-7.268 6.959-3.117 14.18-5.739 21.457-8.03 8.78-2.766 15.625.355 18.578 7.798 3.373 8.501.361 16.358-7.897 20.383-3.882 1.891-7.837 3.63-12.344 5.748-2.656 1.296-4.728 2.284-6.8 3.272 0 0 .12.019-.209.02-1.49.653-2.653 1.304-3.815 1.954 0 0 .127.022-.23.044-9.53 3.353-18.703 6.684-27.877 10.015-3.574.697-7.147 1.395-11.39 1.732-12.853-.677-25.038-.994-37.223-1.311-.18-.064-.36-.127-1.195-.238-3.373-.614-6.09-1.18-8.805-1.747-10.114-3.389-20.229-6.778-31.068-10.325-4.238-.987-7.749-1.818-11.262-2.641-15.752-3.692-31.601-5.287-47.665-2.184-8.74 2.9-17.436 5.943-26.231 8.662-9.277 2.869-18.632 5.495-27.99 8.088-3.25.9-6.613 1.384-10.477 1.763-1.17-.126-1.788.043-2.406.211l-4.03.095c-3.519.053-6.2.088-8.881.122-1.685-.051-3.37-.103-5.731-.497-3.871-.39-7.068-.436-10.264-.483 0 0-.436-.146-.894-.5-3.683-.769-6.909-1.182-10.134-1.595 0 0-.421-.086-.838-.412-1.682-.467-2.948-.609-4.214-.75 0 0 .05.113-.069-.228-1.03-.642-1.941-.944-2.853-1.246a4765 4765 0 0 0-21.945-7.642c-19.523-6.215-38.893-6.88-58.37-5.458-10.793.788-21.174 3.693-30.918 8.579l-.21-.007c-1.413.417-2.483.846-3.552 1.275-4.119 1.293-8.237 2.587-13.1 4.09-12.543 1.383-24.324 2.845-36.149 3.611-5.886.382-11.855-.51-17.786-.826 0 0-.415-.084-.847-.397-4.673-1.08-8.915-1.845-13.156-2.61 0 0-.407-.086-.813-.377-1.323-.368-2.242-.444-3.16-.52 0 0-.425-.136-.786-.45-.98-.397-1.599-.48-2.218-.563 0 0-.42-.132-.785-.438-.982-.39-1.598-.474-2.215-.558 0 0-.417-.137-.783-.443-.983-.39-1.6-.475-2.217-.56 0 0-.419-.13-.746-.4-.641-.396-.954-.523-1.267-.65 0 0-.41-.113-.792-.397-.993-.402-1.605-.52-2.216-.639 0 0-.416-.071-.737-.32a8 8 0 0 0-1.253-.636s-.406-.126-.797-.395c-.997-.39-1.603-.512-2.21-.633"/><path fill="#2865a8" d="M386.27 640.67c-.46-54.098-.848-108.527-.833-162.956.018-66.749.372-133.497.58-200.246.003-.831.014-1.662.021-2.494-.528.052-1.056.103-1.85.412-.347-1.058-.426-2.373-.506-3.689l1.92-.596c.796 1.83 2.273 3.654 2.284 5.488.147 24.97.195 49.941.063 74.911-.226 42.256-.745 84.51-.869 126.767-.156 53.05-.035 106.102-.06 159.153 0 .973-.324 1.946-.75 3.25M589.71 812.709c-20.405 9.224-41.432 17.183-64.555 14.16-11.439-1.495-22.802-4.06-33.97-7.009-12.948-3.418-25.644-7.789-38.814-12.09-.366-.345-.356-.792-.356-.792 11.792 3.247 23.918 5.618 35.295 9.953 15.788 6.015 32.008 8.964 48.638 8.853 16.397-.109 31.928-5.068 46.905-11.667 2.036-.898 4.383-1.092 6.857-1.408"/><path fill="#2162a8" d="M489.65 672.713c-21.419 2.385-43.17 4.541-65.677 6.772-.332-6.234-.727-11.64-.882-17.053-.22-7.645-.331-15.296-.339-22.945-.002-2.36-.424-5.426 3.965-4.635-3.456 3.896-2.78 8.638-2.628 13.217.248 7.457.69 14.907.9 22.364.176 6.219.44 6.908 6.473 6.466 12.553-.92 25.069-2.344 37.616-3.371 6.73-.551 13.491-.708 20.572-.815"/><path fill="#2865a8" d="M631.003 659.825c-28.143 2.697-56.286 5.395-84.834 8.05 2.508-.928 5.371-2.326 8.342-2.617 16.157-1.578 32.344-2.833 48.512-4.304 9.066-.824 18.113-1.849 27.575-2.558.405.627.405 1.028.405 1.429"/><path fill="#2162a8" d="M451.683 806.757c.332.22.322.668.318.892-7.09-.067-14.192-.156-21.26-.688-19.389-1.46-37.301 3.919-54.837 11.346-4.261 1.805-8.69 3.216-13.423 4.85.069-.604.39-1.636.989-1.838 14.754-4.976 29.305-10.818 44.383-14.491 14.207-3.461 28.975-2.687 43.83-.071M438.249 635.13c8.723-.965 17.741-1.825 26.779-2.374 13.228-.803 26.467-1.44 39.706-2.035 7.806-.352 15.622-.488 23.835-.664-3.988.676-8.36 1.625-12.77 1.853-16.203.838-32.421 1.359-48.626 2.157-8.586.422-17.154 1.19-25.734 1.74-.949.061-1.923-.28-3.19-.678"/><path fill="#195ca5" d="M382.217 850.9c9.331-4.907 19.712-7.812 30.505-8.6 19.477-1.423 38.847-.757 57.987 5.466-5.045-.628-10.395-1.444-15.74-2.297-18.606-2.972-37.195-3.889-55.687.724-5.596 1.397-11.104 3.143-17.065 4.708"/><path fill="#1e5fa6" d="M193.049 849.011c19.615-7.772 39.865-9.264 60.565-6.011 3.792.596 7.525 1.577 11.425 2.663-6.089-.392-12.337-.922-18.542-1.768-15.674-2.137-30.955-.365-46.004 4.213-1.569.477-3.245.599-5.528.895-1.076.01-1.496.009-1.916.008M257.376 651.377c2.072-.602 4.463-1.279 6.875-1.363 12.273-.428 24.56-.534 36.826-1.087 9.24-.417 18.453-1.384 27.685-2.005 2.471-.166 4.967.037 7.831.126-3.85.67-8.062 1.555-12.314 1.84-8.277.553-16.579.74-24.868 1.133-12.923.612-25.842 1.28-38.765 1.887-.973.045-1.961-.215-3.27-.531"/><path fill="#2162a8" d="M631.44 659.898c-.437-.474-.437-.875-.435-1.577a2366 2366 0 0 1 65.591-5.961c.413.67.412 1.065.412 1.46-21.71 2.05-43.42 4.101-65.568 6.078"/><path fill="#195ca5" d="M697.434 653.897c-.426-.472-.425-.867-.42-1.557a2159 2159 0 0 1 52.04-5.03c6.411-.542 12.864-.583 19.615-.598-21.777 2.325-43.872 4.39-65.964 6.483-1.625.154-3.23.514-5.271.702"/><path fill="#03459c" d="M468.65 187.398c.282 36.666.344 73.676.398 111.157-.349-1.102-.984-2.673-.987-4.245-.054-34.21-.043-68.42-.02-102.63.002-1.313.255-2.625.61-4.282"/><path fill="#2162a8" d="M255.716 694.798c-4.565.905-9.419 1.798-14.312 2.164-15.153 1.13-30.321 2.059-45.939 3.014.592-.685 1.603-1.797 2.69-1.877 15.324-1.124 30.657-2.129 45.991-3.112 3.748-.24 7.508-.3 11.57-.189"/><path fill="#0b519e" d="M404.787 650.527c.005.814.01 1.629-.271 2.746-.674-1.285-1.394-2.87-1.4-4.458-.095-30.22-.11-60.44-.118-90.66 0-.81.273-1.62.652-2.768.412 23.209.591 46.754.559 71.222.024 7.084.26 13.244.494 19.404.046.745.09 1.49-.01 2.858-.066.967.014 1.312.094 1.656"/><path fill="#1e5fa6" d="M489.234 788.921c17.511 6.727 35.766 10.174 54.809 8.906.762-.05 1.506-.395 2.606-.324.349.68.349 1.083.349 1.485-14.99 1.814-29.682-.014-44.091-4.085-4.672-1.32-9.036-3.728-13.673-5.982"/><path fill="#195ca5" d="M608.38 842.385c15.733-3.318 31.582-1.723 47.334 1.969a703 703 0 0 1 10.894 2.625c-1.532.122-3.494.429-5.299.028-13.28-2.946-26.594-5.53-40.301-4.976-4.1.165-8.199.378-12.629.354"/><path fill="#2865a8" d="M782.361 617.307c3.109-.568 6.554-1.091 10.013-1.212 7.975-.278 13.722 4.038 14.28 11.94.48 6.825-.551 13.756-1.207 20.905-.35-6.394-.343-13.056-.479-19.714-.14-6.883-4.42-11.02-11.338-11.22a163 163 0 0 1-11.269-.7"/><path fill="#1e5fa6" d="M314.765 688.903c-7.206 1.165-14.692 2.226-22.202 3.06-9.89 1.096-19.8 2.015-30.133 2.641-.432-.783-.432-1.197-.432-1.612 13.532-1.212 27.062-2.454 40.598-3.618 3.95-.34 7.92-.458 12.17-.471M213.319 779.265c17.333-3.2 34.9-2.793 52.617 1.35-13.01-.305-26.25-1.031-39.499-1.533-4.256-.16-8.536.27-13.118.183M351.996 796.167c10.878-3.863 21.72-7.834 32.649-11.546 5.922-2.01 11.995-3.579 18.205-5.042-15.443 5.956-31.087 11.624-46.756 17.22-1.032.369-2.26.188-3.745.03-.347-.234-.353-.662-.353-.662"/><path fill="#0b519e" d="M422.597 259.04c-.113-10.038-.226-20.075-.123-30.75.078-1.194-.06-1.752-.198-2.31-.103-.74-.206-1.48-.314-2.593.637.498 1.839 1.37 1.837 2.24-.03 15.59-.206 31.178-.614 47.095-.347-.358-.432-1.045-.327-2.416.084-1.854-.02-3.023-.126-4.193-.082-1.44-.163-2.88-.035-4.914.106-1.114.003-1.637-.1-2.16"/><path fill="#195ca5" d="M311.295 859.274c5.643.064 11.612.956 17.498.574 11.825-.766 23.606-2.228 35.783-3.462-4.237 1.323-8.768 3.348-13.484 3.964-13.169 1.721-26.394 2.04-39.797-1.076M376.792 682.9c-5.543 1.02-11.356 1.927-17.198 2.553-8.876.952-17.772 1.71-27.108 2.488 3.53-.85 7.479-1.948 11.498-2.366 10.825-1.126 21.681-1.962 32.808-2.674M674.051 622.298c1.995.312 4.052 1.642 6.045 1.554 10.063-.448 20.106-1.308 30.162-1.924 2.624-.161 5.27.03 8.315.286.414.406.417.585.421.765-13.356.76-26.708 1.613-40.073 2.152-1.577.064-3.223-1.604-4.87-2.833M708.208 859.62c12.02.002 24.206.319 36.647.99-12.039 1.772-24.327 2.926-36.647-.99"/><path fill="#1e5fa6" d="M881.84 608.514c-.054-7.883-.107-15.767-.07-24.116.474.936 1.182 2.337 1.188 3.741.078 16.46.074 32.921.009 49.382-.006 1.432-.594 2.861-1.212 4.663-.3.372-.415.152-.179-.324.185-2.554.134-4.631.082-6.71-.054-1.486-.109-2.973.052-5.17.145-2.076.075-3.442.005-4.808-.06-3.208-.118-6.415.04-10.367.174-2.593.13-4.442.085-6.291"/><path fill="#2162a8" d="M641.18 777.523c6.994.657 14.279 1.109 21.25 2.832 4.511 1.115 7.9 1.003 11.238-2.669-.406 4.262-3.525 5.603-7.301 5.078-7.997-1.113-15.94-2.615-23.897-4.005-.417-.073-.757-.591-1.29-1.236M521.663 669.734c-9.366 1.209-19.062 2.18-29.2 3.12 2.103-.771 4.61-1.954 7.2-2.173 7.205-.61 14.444-.82 22-.947"/><path fill="#1e5fa6" d="M452.937 778.574c11.219 2.777 22.385 5.833 33.827 9.112-1.115.182-2.575.402-3.888.058-9.74-2.55-19.454-5.203-29.163-7.87-.344-.094-.556-.67-.776-1.3"/><path fill="#0b519e" d="M602.372 779.392c12.028-.93 24.366-1.648 37.138-2.3-.332.34-1.089.814-1.867.853-11.652.587-23.306 1.117-35.27 1.447"/><path fill="#2162a8" d="M608.35 625.284c9.68-.882 19.696-1.526 30.168-2.117-.123.59-.688 1.573-1.285 1.593-9.513.327-19.03.53-28.884.524"/><path fill="#0b519e" d="M403.695 225.374c.25 17.658.272 35.659.246 54.123-.343-.626-.893-1.716-.896-2.808-.045-16.35-.023-32.7.01-49.052 0-.64.269-1.28.64-2.263"/><path fill="#2162a8" d="M757.013 859.002c8.818-3.449 17.991-6.78 27.528-10.197-2.926 2-5.976 4.775-9.557 6.016-5.686 1.971-11.726 2.918-17.971 4.181M547.384 798.917c-.386-.331-.386-.734-.387-1.438 8.07-2.693 16.142-5.083 24.59-7.513-1.454 1.205-3.122 2.951-5.143 3.603-6.152 1.986-12.44 3.549-19.06 5.348"/><path fill="#0b519e" d="M806.351 651.293c14.676-.278 29.684-.31 45.154-.275-.133.333-.73.83-1.323.827-14.5-.07-29-.193-43.83-.552"/><path fill="#1e5fa6" d="M339.213 647.095c7.051-.905 14.388-1.58 21.727-2.234 2.569-.228 5.142-.406 7.918-.295-4.277.993-8.737 1.934-13.243 2.29-5.35.423-10.741.342-16.402.24M719.42 622.975c-.43-.176-.433-.355-.443-.803 8.121-1 16.25-1.73 24.7-2.315-3.333.81-6.967 1.654-10.649 2.093-4.372.522-8.785.697-13.607 1.025M746.362 620.332c6.71-.926 13.752-1.636 21.211-2.31-.129.603-.65 1.636-1.228 1.67-6.546.374-13.1.595-19.983.64"/><path fill="#2162a8" d="M192.69 699.796c-4.367.594-9.065.939-14.226 1.236 3.975-4.003 9.048-1.624 14.227-1.236"/><path fill="#195ca5" d="M304.238 794.098c5.64.906 11.556 2.061 17.682 3.541-5.663-.88-11.534-2.086-17.682-3.54M289.117 788.404c4.832 1.404 9.768 3.138 14.862 5.195a156 156 0 0 1-14.862-5.195"/><path fill="#03459c" d="M417.429 777.386c7.624-.242 15.601-.285 24.04-.272-7.588.195-15.637.333-24.04.272"/><path fill="#195ca5" d="M169.2 859.077c3.82-1.863 7.9-3.536 12.356-5.276-3.782 1.778-7.94 3.622-12.356 5.276"/><path fill="#1e5fa6" d="M297.206 856.325c4.04.455 8.28 1.22 12.742 2.305-4.033-.452-8.286-1.223-12.742-2.305"/><path fill="#195ca5" d="M192.68 849.039c.79-.027 1.21-.027 1.944-.035a212 212 0 0 1-12.423 4.891c3.097-1.626 6.604-3.227 10.479-4.856"/><path fill="#0b519e" d="M589.319 783.349c3.45-1.403 7.168-2.603 11.245-3.855-3.42 1.318-7.198 2.688-11.245 3.855"/><path fill="#1e5fa6" d="M275.22 783.267c3.351.844 6.923 1.958 10.738 3.338-3.343-.846-6.929-1.957-10.737-3.338"/><path fill="#0b519e" d="M404.663 673.342c.235 2.128.235 4.56.235 7.35-2.345.366-4.694.733-7.445 1.088.02-.498.485-1.44.858-1.404 5.097.477 5.891-2.847 6.352-7.034"/><path fill="#2162a8" d="M531.213 630.092c3.17-.541 6.623-.852 10.42-1.077-3.15.494-6.644.901-10.42 1.077"/><path fill="#195ca5" d="M403.537 397.168c.362 2.213.393 4.571.373 7.368-3.028-1.88-2.235-4.52-.373-7.368"/><path fill="#2162a8" d="M175.721 700.824c-1.775.473-3.856.713-6.341.92-.369-.59-.334-1.146-.3-1.702 2.112.184 4.224.367 6.641.782"/><path fill="#195ca5" d="M339.327 798.284c3.41-.647 7.135-1.05 11.274-1.505-3.377.549-7.168 1.149-11.274 1.505M698.186 857.628c2.574.258 5.29.825 8.38 1.484-2.496-.33-5.367-.753-8.38-1.484"/><path fill="#2162a8" d="M789.182 846.884c1.678-1.021 3.75-2.009 6.168-3.037-1.693.996-3.734 2.033-6.168 3.037"/><path fill="#195ca5" d="M501.271 858.309c2.965.14 6.19.553 9.644 1.309-2.976-.118-6.18-.577-9.644-1.31M403.55 380.145c.343 1.256.378 2.633.362 4.42a16.3 16.3 0 0 1-.362-4.42"/><path fill="#1e5fa6" d="M770.311 618.245c2.417-.234 5.142-.231 8.26-.17-2.39.175-5.17.291-8.26.17"/><path fill="#195ca5" d="M512.377 860.35a55 55 0 0 1 9.504.267c-2.886.214-6.026.083-9.504-.268"/><path fill="#1e5fa6" d="M267.279 781.352c1.995.136 4.247.534 6.71 1.26-2.01-.115-4.232-.556-6.71-1.26"/><path fill="#195ca5" d="M528.351 861.33c2.364-.253 5.045-.288 8.171-.27a75 75 0 0 1-8.17.27"/><path fill="#2162a8" d="M532.677 668.725c.148.27-.013.316-.756.334-.802-.003-1.024.022-1.245.046-.213.218-.467.296-1.296.092-1.465.057-2.398.256-3.33.456-.167.057-.333.114-.762.141 2.185-.45 4.633-.872 7.389-1.069"/><path fill="#195ca5" d="M670.052 616.31c.995 1.073 2.01 2.521 3.138 4.287-.963-1.092-2.04-2.502-3.138-4.287"/><path fill="#2162a8" d="M545.318 629.314c1.595-.5 3.484-.79 5.558-.762-1.631.537-3.448.756-5.558.762M537.047 668.667c-.448.081-.896.163-1.686.21 1.704-.515 3.75-.996 5.743-1.234-1.387.504-2.722.764-4.057 1.024M572.3 789.95c1.064-.643 2.522-1.29 4.324-1.973-1.08.633-2.504 1.301-4.323 1.974"/><path fill="#195ca5" d="M403.567 412.129c.33.95.364 2.005.345 3.453a10.1 10.1 0 0 1-.345-3.453"/><path fill="#2162a8" d="M261.642 692.997c.356.41.356.824.359 1.548-1.062.35-2.127.39-3.59.392.693-.67 1.784-1.303 3.231-1.94M601.322 626.354c1.12-.572 2.521-.957 4.293-1.294-1.09.525-2.551 1.003-4.293 1.294"/><path fill="#1e5fa6" d="M882.128 565.756c-.303-1.78-.369-3.86-.344-6.38.254 1.734.418 3.907.344 6.38"/><path fill="#2162a8" d="M785.135 848.858c.791-.683 1.953-1.334 3.45-2.047-.804.652-1.941 1.366-3.45 2.047"/><path fill="#195ca5" d="M378.285 852.339c.826-.621 1.896-1.05 3.309-1.535a12 12 0 0 1-3.31 1.535"/><path fill="#2162a8" d="M429.312 635.317c1.415-.24 3.114-.273 5.233-.245a30 30 0 0 1-5.233.245"/><path fill="#195ca5" d="M403.598 446.1c.304.976.34 2.028.33 3.473a11.3 11.3 0 0 1-.33-3.474M325.307 798.323c1.425-.285 3.128-.346 5.255-.34-1.377.233-3.177.398-5.255.34"/><path fill="#2865a8" d="M537.423 668.724c.959-.317 2.294-.577 3.965-.877.541.006.746.053 1.264.123-1.408.285-3.13.548-5.229.754"/><path fill="#195ca5" d="M668.056 613.293c.584.469 1.203 1.279 1.91 2.384-.564-.484-1.22-1.264-1.91-2.384M662.057 604.292c.585.472 1.198 1.286 1.89 2.398-.568-.487-1.215-1.272-1.89-2.398M666.058 610.29c.589.47 1.21 1.281 1.906 2.393-.575-.484-1.224-1.268-1.906-2.394M658.054 598.3c.574.473 1.182 1.286 1.875 2.394-.557-.49-1.199-1.273-1.875-2.395M664.05 607.306c.587.467 1.21 1.272 1.912 2.376-.571-.48-1.223-1.259-1.911-2.376M660.046 601.323c.59.46 1.213 1.26 1.917 2.355-.574-.474-1.229-1.245-1.917-2.355"/><path fill="#0b519e" d="M403.67 521.3c.246 1.108.276 2.476.262 4.251a20 20 0 0 1-.261-4.252"/><path fill="#1e5fa6" d="M882.208 536.943c-.308-.383-.362-.835-.334-1.62.251.294.42.922.334 1.62"/><path fill="#195ca5" d="M403.622 390.085c.273.374.307.808.29 1.567-.21-.287-.37-.897-.29-1.567"/><path fill="#1e5fa6" d="M882.197 544.947c-.308-.385-.36-.838-.331-1.625.25.296.418.926.33 1.625"/><path fill="#195ca5" d="M403.671 461.307c.245.79.276 1.855.029 3.312-.28.392-.684.391-.684.391.147-1.143.295-2.286.655-3.703M654.34 592.903c.528.275 1.038.89 1.624 1.795-.497-.29-1.07-.873-1.624-1.795M496.25 857.108c.975-.093 2.241.049 3.708.518-1.005.124-2.211-.08-3.708-.518"/><path fill="#1e5fa6" d="M882.124 574.796c-.273-.843-.326-1.936-.293-3.432.228.792.37 1.987.293 3.432"/><path fill="#195ca5" d="M541.128 861.064c.435-.338 1.052-.507 1.793-.415-.454.369-1.033.477-1.793.415"/><path fill="#1e5fa6" d="M293.293 855.327c.656-.133 1.575-.057 2.69.32-.677.162-1.552.026-2.69-.32M882.094 553.83c-.258-.554-.31-1.33-.272-2.49.219.503.348 1.386.272 2.49"/><path fill="#195ca5" d="M493.247 855.704c.702-.002 1.613.3 2.7.917-.714.006-1.602-.304-2.7-.917"/><path fill="#1e5fa6" d="M270.28 847.313c.663-.133 1.58-.047 2.69.338-.683.16-1.559.02-2.69-.338M266.28 846.315c.676-.149 1.607-.076 2.72.313-.702.18-1.583.044-2.72-.313"/><path fill="#0b519e" d="M403.684 513.241c.229.53.258 1.26.243 2.354-.178-.476-.31-1.314-.243-2.354M403.686 532.241c.229.53.258 1.26.243 2.355-.177-.476-.31-1.315-.243-2.355"/><path fill="#195ca5" d="M286.214 787.023c.403-.042 1.016.164 1.807.645-.414.051-1.005-.173-1.807-.645"/><path fill="#1e5fa6" d="M290.243 854.309c.403-.12 1.022-.038 1.78.344-.43.152-.996.006-1.78-.344M287.246 853.31c.398-.117 1.014-.033 1.776.345-.422.147-.99.001-1.776-.346M284.245 852.31c.4-.119 1.016-.034 1.78.344-.424.149-.993.004-1.78-.344M279.222 850.235c.395-.097 1.007.022 1.787.426-.41.12-.99-.045-1.787-.426"/><path fill="#195ca5" d="M653.152 591.115c.356.167.761.656 1.197 1.477-.362-.163-.755-.658-1.197-1.477M652.134 589.364c.255.177.598.626 1.007 1.36-.262-.173-.59-.631-1.007-1.36"/><path fill="#1e5fa6" d="M274.227 848.249c.389-.092.995.03 1.78.423-.402.11-.982-.05-1.78-.423"/><path fill="#195ca5" d="M657.224 596.873c.126.03.396.294.739.838-.15-.015-.372-.308-.739-.838"/><path fill="#1e5fa6" d="M780.048 617.838c0-.158.198-.438.658-.714.063.25-.177.447-.658.714"/><path fill="#2865a8" d="M805.108 649.181c.13-.075.059.386-.02.605-.335-.042-.345-.292.02-.605"/><path fill="#0b519e" d="M403.785 491.146c.094-.107.172.354.133.584-.312.02-.374-.216-.133-.584"/><path fill="#2162a8" d="M577.058 787.893c-.005-.104.182-.272.617-.407-.056.028-.28.132-.617.407"/><path fill="#0b519e" d="M403.122 465.199c-.106-.189.299-.188.501-.187.203 0 .318.469.282.707-.301.106-.515-.084-.783-.52"/><path fill="#195ca5" d="M351.737 796.132c.26.035.265.463.27.677-.198.196-.399.178-.9.102-.076-.31.148-.562.63-.78"/><path fill="#1e5fa6" d="M282.172 851.245c.155-.062.468.065.89.449-.188.11-.468-.062-.89-.45M277.175 849.25c.152-.058.463.071.883.452-.182.102-.46-.07-.883-.451"/><path fill="#2162a8" d="M361.967 823.127c.115.217-.076.44-.648.544.015-.122.255-.261.648-.544"/><path fill="#0b519e" d="M403.782 500.145c.098-.106.177.355.14.586-.325.024-.392-.213-.14-.586"/><path fill="#3772af" d="M533.032 315.088c2.471-6.343 6.645-8.898 14.997-8.918 26.332-.063 52.664-.091 78.997-.093 57.498-.003 114.996.026 172.494.016 5.15-.001 10.048.458 13.426 5.926-.25 5.143-.605 9.55-.96 13.956 0 0 .016.024-.346.057-.917.84-1.471 1.646-2.026 2.453 0 0-.043.124-.533.047-11.572.747-22.644 1.813-33.74 2.269-4.009.165-8.071-1.599-12.12-1.654-6.22-.086-12.453.847-18.677.823-65.829-.258-131.657-.622-197.485-.951-8.628-.044-13.666-5.034-14.027-13.931"/><path fill="#3973b0" d="M551.088 371.179c55.797-.013 111.107-.024 166.418-.029 1.666 0 3.335-.004 4.996.097 7.083.427 12.026 5.005 12.299 11.341.312 7.248-4.387 13.146-11.41 14.106-2.13.292-4.322.193-6.486.193-54.977-.01-109.954-.023-164.931-.068-2.988-.003-6.031.022-8.952-.504-7-1.261-11.216-6.695-10.794-13.43.371-5.908 5.382-10.83 11.88-11.514 2.147-.226 4.328-.135 6.98-.192"/><path fill="#3772af" d="M785.046 178.955c16.272 16.725 32.302 33.19 48.304 49.684 1.62 1.67 3.134 3.457 4.58 5.283 4.215 5.329 3.805 6.77-2.903 8.576a37 37 0 0 1-9.347 1.257c-18.32.098-36.642.063-54.963-.006-12.314-.046-16.506-4.17-16.503-16.477.004-19.819.163-39.638.3-59.456.017-2.66.12-5.34.463-7.974.63-4.831 2.821-6.016 6.638-3.068 4.722 3.646 9.04 7.835 13.383 11.946 3.384 3.204 6.54 6.647 10.048 10.235M553.031 240.872c46.806.007 93.118.016 139.43.028 1.166 0 2.336-.029 3.498.048 7.524.5 13 5.77 13.056 12.538.054 6.535-5.642 12.012-13.218 12.33-5.654.236-11.326.063-16.99.064-43.313.005-86.627.055-129.94-.082-3.358-.01-7.028-.721-9.996-2.214-4.646-2.336-6.775-8.033-5.763-12.787.997-4.681 5.9-9.125 10.942-9.644 2.809-.29 5.657-.198 8.981-.281"/><path fill="#4277af" d="M532.828 315.408c.565 8.577 5.603 13.567 14.231 13.61 65.828.33 131.656.694 197.485.952 6.224.024 12.456-.909 18.677-.823 4.049.055 8.111 1.819 12.12 1.654 11.096-.456 22.168-1.522 33.674-2.27-3.352.955-7.12 2.554-10.906 2.597-32.466.367-64.934.622-97.402.58-51.778-.065-103.556-.35-155.333-.63-9.223-.05-14.219-6.273-12.546-15.67M812.275 325.784c.066-4.215.421-8.622.762-13.436 3.567 4.27 2.618 8.793-.762 13.436"/><path fill="#3571af" d="M881.523 635.529c.187 1.7.238 3.777.132 6.235-.194-1.699-.23-3.778-.132-6.235M881.686 608.89c.198 1.473.243 3.322.172 5.53-.186-1.478-.256-3.316-.172-5.53"/><path fill="#4277af" d="M809.866 328.337c.303-.659.857-1.466 1.762-2.31-.27.695-.89 1.429-1.762 2.31"/><path fill="#3571af" d="M881.579 625.543c.206.995.276 2.361.23 4-.2-1.028-.283-2.329-.23-4M404.792 645.552c-.324-5.7-.559-11.86-.668-18.509.336 5.69.546 11.869.668 18.509M422.6 266.446c.237.837.342 2.006.33 3.518-.232-.834-.348-2.01-.33-3.518"/><path fill="#2865a8" d="M526.41 669.713c.572-.26 1.505-.459 2.807-.645-.57.245-1.508.475-2.807.645"/><path fill="#3571af" d="M422.466 259.349c.234.213.337.736.304 1.422-.236-.262-.336-.687-.304-1.422M422.191 226.316c.223.222.36.78.335 1.509-.25-.277-.335-.725-.335-1.51M404.872 650.273c-.165-.09-.245-.435-.226-1.03.17.091.24.434.226 1.03"/><path fill="#2865a8" d="M530.836 669.195c.061-.114.283-.14.838-.178-.003.08-.34.173-.838.178"/></svg>